<svg xmlns="http://www.w3.org/2000/svg" width="649.375" height="280.843" version="1.0"><defs/><path fill="#005eb8" d="M409.247 96.468l7.347-.65c.15 4.898 3.05 7.197 6.646 7.197 3.348 0 5.848-1.55 5.848-4.248 0-2.449-2.1-3.748-6.696-5.047l-3.55-1c-6.097-1.699-8.345-5.297-8.345-9.694 0-5.997 4.948-10.145 12.593-10.145s12.693 3.947 12.744 9.845v.6l-7.298.748v-.449c-.1-3.248-2.396-4.747-5.496-4.747-3.247 0-5.196 1.549-5.196 3.697 0 1.799 1.05 2.75 4.848 3.9l3.996 1.198c6.697 1.999 9.845 5.347 9.845 10.344 0 6.497-5.297 10.994-13.343 10.994-8.145 0-13.643-4.298-13.943-12.543M441.031 76.279c0-2.298 1.798-4.098 4.148-4.098 2.397 0 4.197 1.8 4.197 4.098 0 2.349-1.8 4.148-4.197 4.148-2.35 0-4.147-1.8-4.147-4.148m.547 7.296h7.198v24.886h-7.198V83.575zM462.02 92.72v15.74h-7.195V83.576h7.195v3c1.549-2.201 3.998-3.599 7.297-3.599 5.098 0 8.846 3.098 8.846 9.844v15.641h-7.197V94.269c0-3.447-1.7-4.847-4.297-4.847-1.9 0-3.7 1.15-4.65 3.298M493.704 118.556h-1.1c-6.446 0-10.993-2.349-10.993-7.046 0-2.699 1.699-4.498 4.447-5.497-1.049-.7-1.7-1.749-1.7-2.998 0-1.55.95-2.749 2.45-3.649-2.45-1.499-4.098-3.998-4.098-7.345 0-5.648 4.995-8.846 10.395-8.846h.1c2.45 0 3.598.4 7.596.4h5.146v5.247l-3.498-.049c.55 1.098.85 2.248.85 3.347 0 5.747-4.396 8.896-10.193 8.896-1.65 0-2.198.699-2.198 1.3 0 .798.698 1.198 2.698 1.248l2.896.05c5.598.1 8.448 2.7 8.448 7.096 0 4.848-4.55 7.846-11.246 7.846m.15-5.148c3.049 0 4.597-.798 4.597-2.398 0-1.699-1.647-2.349-4.446-2.349h-1.449c-2.898.05-4.498.8-4.498 2.449s1.65 2.298 4.647 2.298h1.149zm-.8-17.69c2.3 0 3.898-1.5 3.898-3.647 0-2.049-1.649-3.598-3.897-3.598-2.349 0-3.898 1.549-3.898 3.598 0 2.148 1.65 3.647 3.898 3.647M509.795 72.581h7.196v35.88h-7.196zM534.682 109.01c-6.896 0-12.992-4.497-12.992-13.142 0-8.146 5.847-12.944 12.494-12.944 6.846 0 11.694 4.7 11.944 12.194.048 1.5.048 2.15.048 2.549h-17.339c.25 3.548 2.897 5.697 6.195 5.697 2.547 0 4.647-1.199 5.946-3.349l4.9 3.299c-2 3.548-5.748 5.696-11.196 5.696m-5.696-15.941h9.896c-.151-3.148-2.45-4.597-4.9-4.597-2.448 0-4.746 1.5-4.996 4.597M423.14 143.794h-4.397v14.49h-7.395v-34.978h14.842c6.246 0 11.094 3.897 11.094 10.044 0 2.898-.75 5.048-2.699 7.047-1 1.049-2.3 1.897-3.696 2.448l8.894 15.44h-8.596l-8.046-14.49zm-4.399-6.446h6.797c2.45 0 4.1-1.399 4.1-3.798 0-2.198-1.75-3.647-4.198-3.647h-6.698v7.445zM454.122 158.835c-6.894 0-12.99-4.496-12.99-13.142 0-8.146 5.847-12.944 12.492-12.944 6.847 0 11.695 4.7 11.945 12.194.047 1.5.047 2.148.047 2.549h-17.338c.25 3.548 2.897 5.697 6.196 5.697 2.547 0 4.645-1.2 5.945-3.35l4.899 3.3c-2 3.549-5.747 5.696-11.196 5.696m-5.694-15.94h9.896c-.15-3.148-2.45-4.597-4.899-4.597-2.448-.001-4.747 1.498-4.997 4.597M468.168 151.49l6.096-1.748c.75 2.447 2.397 3.748 4.947 3.748 2.049 0 3.698-.75 3.698-2.35 0-1.648-2.098-2.299-5.147-2.799-5.097-.9-8.594-2.898-8.594-7.646 0-4.848 4.396-7.946 10.443-7.946 5.996 0 9.095 2.848 10.196 6.696l-6.1 1.55c-.549-2.099-1.948-2.999-4.146-2.999-2.15 0-3.498.95-3.498 2.399 0 1.65 1.9 2.049 4.998 2.499 4.895.75 8.844 2.749 8.844 7.896 0 4.848-4.397 7.997-10.694 7.997-5.996 0-9.793-2.55-11.043-7.297M492.855 145.693c0-8.396 6.347-12.943 12.793-12.943 6.697 0 12.793 4.498 12.793 12.943 0 8.495-6.297 13.142-12.793 13.142-6.696 0-12.793-4.597-12.793-13.142m18.29 0c0-4.348-2.599-6.597-5.497-6.597-2.897 0-5.496 2.2-5.496 6.597 0 4.447 2.6 6.797 5.496 6.797 2.95 0 5.498-2.3 5.498-6.797M523.19 122.406h7.194v35.88h-7.194zM552.125 155.238c-1.6 2.198-3.949 3.549-7.196 3.549-4.948 0-8.647-2.95-8.647-9.545V133.4h7.197v14.342c0 3.35 1.9 4.647 4.146 4.647 1.748 0 3.498-1.1 4.498-3.147V133.4h7.195v24.887h-7.195v-3.05h.002zM574.312 158.636c-4.447 0-7.795-2.398-7.795-7.945l.049-11.344h-3.547v-5.946h3.598v-6.647h6.996v6.647h6.197v5.946h-6.248v10.645c0 2.198 1 2.748 2.25 2.748.898 0 1.648-.399 2.398-1l2.598 4.698c-1.597 1.349-3.796 2.198-6.496 2.198M583.608 126.105c0-2.299 1.8-4.1 4.147-4.1 2.399 0 4.197 1.801 4.197 4.1 0 2.348-1.798 4.147-4.197 4.147-2.347 0-4.147-1.799-4.147-4.147m.55 7.296h7.194v24.886h-7.194V133.4zM595.803 145.693c0-8.396 6.349-12.943 12.793-12.943 6.697 0 12.793 4.498 12.793 12.943 0 8.495-6.297 13.142-12.793 13.142-6.695 0-12.793-4.597-12.793-13.142m18.291 0c0-4.348-2.6-6.597-5.498-6.597s-5.496 2.2-5.496 6.597c0 4.447 2.599 6.797 5.496 6.797 2.95 0 5.498-2.3 5.498-6.797M633.232 142.544v15.743h-7.195V133.4h7.195v2.999c1.549-2.2 3.998-3.598 7.297-3.598 5.1 0 8.846 3.098 8.846 9.844v15.642h-7.197v-14.192c0-3.447-1.7-4.847-4.297-4.847-1.9 0-3.7 1.149-4.65 3.296M411.348 208.112V173.13h13.941c7.096 0 11.293 3.35 11.293 8.946 0 3.148-1.747 5.748-4.298 6.946 3.2 1.2 5.448 4.298 5.448 8.296 0 6.946-4.848 10.794-12.943 10.794h-13.441zm7.446-21.838h6.546c2.348 0 3.896-1.3 3.896-3.498 0-2.298-1.848-3.448-4.197-3.448h-6.245v6.946zm5.895 15.642c3.298 0 5.447-1.8 5.447-4.797 0-3.05-2.299-4.848-5.598-4.848h-5.745v9.644h5.896zM441.331 195.52c0-8.396 6.35-12.942 12.794-12.942 6.697 0 12.793 4.498 12.793 12.942 0 8.495-6.298 13.144-12.793 13.144-6.694-.002-12.794-4.6-12.794-13.144m18.291 0c0-4.349-2.6-6.597-5.497-6.597s-5.496 2.2-5.496 6.597c0 4.446 2.599 6.796 5.496 6.796 2.949-.001 5.497-2.299 5.497-6.796M478.613 208.612c-4.548 0-8.546-3-8.546-7.846 0-4.298 2.897-6.395 8.444-7.847l6.895-1.798c-.25-1.95-1.797-2.898-4.097-2.898-2.348 0-3.947 1.049-4.598 2.998l-6.295-1.7c1.399-4.598 5.846-6.995 11.194-6.995 6.694 0 10.793 3.198 10.793 9.145v16.44h-6.897l-.05-2.298-.15.15c-2.095 1.75-4.145 2.649-6.692 2.649m5.396-6.995l1.35-.85.048-4.698-3.998 1.098c-2.897.801-4.196 1.5-4.196 3.149 0 1.799 1.6 2.648 3.1 2.648 1.247 0 2.247-.448 3.696-1.347M505.55 191.971v16.142h-7.198v-24.887h7.197v2.899c1.148-1.8 2.998-3.3 5.346-3.3 1.949 0 3.5.65 4.348 1.2l-2.398 6.348c-1.049-.65-2.196-1-3.349-1-1.749 0-3.3 1.148-3.947 2.598M534.334 205.714a9.526 9.526 0 01-6.746 2.798c-5.797 0-11.244-4.348-11.244-12.942 0-8.546 5.396-12.893 11.192-12.893 2.55 0 4.698.8 6.298 2.099v-12.544h7.195v35.88h-6.695v-2.398zm-.5-8.646v-3.048c-.052-2.999-2.147-4.946-4.947-4.946-2.799 0-5.248 1.997-5.248 6.495 0 4.548 2.45 6.546 5.248 6.546 2.7 0 4.896-1.848 4.947-5.047"/><path fill="#ffcd00" d="M141.368 0l-4.566 14.053h-14.776l11.954 8.685-4.566 14.053 11.954-8.686 11.953 8.686-4.565-14.053 11.954-8.685h-14.776zM145.935 258.104l-4.566-14.052-4.567 14.052h-14.775l11.953 8.687-4.566 14.052 11.955-8.685 11.953 8.685-4.566-14.052 11.954-8.687zM19.343 150.132l11.954 8.684-4.566-14.052 11.954-8.685H23.908l-4.565-14.053-4.566 14.053H0l11.954 8.685-4.565 14.052zM80.355 16.349L75.79 30.401H61.013l11.954 8.684-4.565 14.055 11.953-8.686L92.31 53.14l-4.566-14.055 11.954-8.684H84.92zM35.69 61.013l-4.565 14.053H16.349l11.954 8.685-4.566 14.053 11.953-8.685 11.955 8.685-4.565-14.053 11.954-8.685H40.257zM40.257 197.091l-4.566-14.052-4.566 14.052H16.349l11.954 8.685-4.567 14.054 11.955-8.685 11.954 8.685-4.566-14.054 11.954-8.685zM84.921 241.755l-4.565-14.052-4.567 14.052H61.013l11.954 8.686-4.566 14.053 11.955-8.685 11.954 8.685-4.567-14.053 11.954-8.686zM202.381 16.349l-4.565 14.052h-14.777l11.954 8.684-4.566 14.055 11.954-8.686 11.954 8.686-4.565-14.055 11.954-8.684h-14.778zM206.946 241.755l-4.565-14.052-4.566 14.052H183.04l11.953 8.686-4.567 14.053 11.955-8.685 11.954 8.685-4.565-14.053 11.954-8.686z"/><path fill="#5e93db" d="M134.513 120.383l-.27-.068c-14.007-3.521-25.07-6.303-25.07-14.196 0-6.937 7.396-9.4 13.73-9.4 7.232 0 14.96 3.475 14.96 13.223v.998h19.03V66.03c-9.044-4.607-20.306-7.065-33.484-7.065-37.092 0-59.237 18.096-59.237 48.408 0 35.39 28.097 42.37 50.672 47.98l.928.227c14.108 3.42 25.253 6.12 25.253 14.835 0 7.919-8.186 12.062-16.27 12.062-7.868 0-17.055-3.995-17.055-15.259v-.996H62.203v.996c0 33.412 24.016 54.166 62.675 54.166 12.259 0 23.026-2.031 32.015-5.826V127.3c-7.464-3.064-15.335-5.1-22.38-6.917M227.485 59.012h-70.592v7.018c16.199 8.253 25.254 23.428 25.254 43.91v.999h-25.254V127.3c16.05 6.593 30.216 17.968 30.216 42.305 0 21.74-11.056 37.864-30.216 45.953v6.32h44.87v-49.833h16.268l26.424 49.832h12.42V65.424c-8.556-4.142-18.508-6.412-29.39-6.412m-5.227 75.237h-20.495V98.884h20.495c12.543 0 19.764 7.452 19.764 17.632 0 10.181-7.221 17.733-19.764 17.733"/><path fill="#005eb8" d="M182.146 110.939v-.998c0-20.483-9.055-35.658-25.254-43.91v44.908h25.254zM187.108 169.605c0-24.337-14.165-35.712-30.216-42.305v88.258c19.161-8.088 30.216-24.213 30.216-45.953"/><path fill="#5e93db" d="M359.801 135.88l-.004-.002c12.441-7.538 20.594-20.63 20.594-35.184 0-24.062-21.073-41.68-49.952-41.68h-73.564v6.41c19.051 9.22 31.173 27.732 31.173 51.226 0 19.987-9.762 36.364-25.852 45.997l32.339 59.231h37.407c30.063 0 52.836-19.988 52.836-46.377-.001-17.773-9.631-32.345-24.977-39.62m-59.842-41.934h22.674c9.383 0 15.172 5.726 15.172 14.179h.003c0 8.452-5.79 14.18-15.173 14.18h-22.676V93.946zm24.371 91.094h-24.373v-29.62h24.373c9.717 0 16.069 6.093 16.069 14.743 0 8.785-6.352 14.877-16.069 14.877"/><path fill="#005eb8" d="M288.047 116.65c0-23.494-12.122-42.006-31.173-51.227v156.455h37.66l-32.34-59.231c16.09-9.633 25.853-26.011 25.853-45.997"/></svg>